name GIL02_xslow2.mot
datacolumns 153
datarows 4
range 0.80833316 0.83333313
endheader

                time	           pelvis_tx	           pelvis_ty	           pelvis_tz	         pelvis_tilt	         pelvis_list	     pelvis_rotation	       hip_flexion_r	     hip_adduction_r	      hip_rotation_r	        knee_angle_r	       ankle_angle_r	    subtalar_angle_r	         mtp_angle_r	       hip_flexion_l	     hip_adduction_l	      hip_rotation_l	        knee_angle_l	       ankle_angle_l	    subtalar_angle_l	         mtp_angle_l	    lumbar_extension	      lumbar_bending	     lumbar_rotation	     ground_force_vx	     ground_force_vy	     ground_force_vz	     ground_force_px	     ground_force_py	     ground_force_pz	     ground_force_vx	     ground_force_vy	     ground_force_vz	     ground_force_px	     ground_force_py	     ground_force_pz	     ground_torque_x	     ground_torque_y	     ground_torque_z	     ground_torque_x	     ground_torque_y	     ground_torque_z	    ground_marker_px	    ground_marker_py	    ground_marker_pz	    ground_marker_px	    ground_marker_py	    ground_marker_pz	    ground_marker_px	    ground_marker_py	    ground_marker_pz	    ground_marker_px	    ground_marker_py	    ground_marker_pz	    ground_marker_px	    ground_marker_py	    ground_marker_pz	    ground_marker_px	    ground_marker_py	    ground_marker_pz	    ground_marker_px	    ground_marker_py	    ground_marker_pz	    ground_marker_px	    ground_marker_py	    ground_marker_pz	    ground_marker_px	    ground_marker_py	    ground_marker_pz	    ground_marker_px	    ground_marker_py	    ground_marker_pz	    ground_marker_px	    ground_marker_py	    ground_marker_pz	    ground_marker_px	    ground_marker_py	    ground_marker_pz	    ground_marker_px	    ground_marker_py	    ground_marker_pz	    ground_marker_px	    ground_marker_py	    ground_marker_pz	    ground_marker_px	    ground_marker_py	    ground_marker_pz	    ground_marker_px	    ground_marker_py	    ground_marker_pz	    ground_marker_px	    ground_marker_py	    ground_marker_pz	    ground_marker_px	    ground_marker_py	    ground_marker_pz	    ground_marker_px	    ground_marker_py	    ground_marker_pz	    ground_marker_px	    ground_marker_py	    ground_marker_pz	    ground_marker_px	    ground_marker_py	    ground_marker_pz	    ground_marker_px	    ground_marker_py	    ground_marker_pz	    ground_marker_px	    ground_marker_py	    ground_marker_pz	    ground_marker_px	    ground_marker_py	    ground_marker_pz	    ground_marker_px	    ground_marker_py	    ground_marker_pz	    ground_marker_px	    ground_marker_py	    ground_marker_pz	    ground_marker_px	    ground_marker_py	    ground_marker_pz	    ground_marker_px	    ground_marker_py	    ground_marker_pz	    ground_marker_px	    ground_marker_py	    ground_marker_pz	    ground_marker_px	    ground_marker_py	    ground_marker_pz	    ground_marker_px	    ground_marker_py	    ground_marker_pz	    ground_marker_px	    ground_marker_py	    ground_marker_pz	    ground_marker_px	    ground_marker_py	    ground_marker_pz	    ground_marker_px	    ground_marker_py	    ground_marker_pz	    ground_marker_px	    ground_marker_py	    ground_marker_pz	    ground_marker_px	    ground_marker_py	    ground_marker_pz	    ground_marker_px	    ground_marker_py	    ground_marker_pz	
          0.80833316	          1.65067911	          0.94772637	         -0.31194526	         -2.79340744	          2.34848118	          1.18871093	         28.57763672	         -6.27388620	          7.17160368	        -18.01955986	         -5.08091545	          0.00000000	          0.00000000	         -4.72293758	          7.38512516	          9.97939205	         -3.29388952	         10.71092796	          0.00000000	          0.00000000	        -11.71171856	         -0.78576916	         -4.85513973	          0.00000000	          0.00000000	          0.00000000	          2.18289136	          0.00000000	         -0.18876443	         13.73518749	        646.28144214	         18.62065793	          1.53387524	          0.00000000	         -0.32847055	          0.00000000	          0.00000000	          0.00000000	          0.00000000	         -1.28017798	          0.00000000	          1.56553614	          0.88631165	         -0.30808303	          1.56088758	          0.86179292	         -0.23965164	          1.55944395	          0.86854827	         -0.38992229	          1.74253166	          0.48527357	         -0.21249403	          1.50628614	          0.45910671	         -0.35449618	          1.79479373	          0.08395626	         -0.20097542	          1.43049896	          0.07156906	         -0.30725959	          1.65067911	          0.94772637	         -0.31194526	          1.65182436	          0.94236743	         -0.19273767	          1.64953387	          0.95308530	         -0.43115285	          1.46547043	          0.99395537	         -0.26961184	          1.47003114	          0.99813193	         -0.35465959	          1.74690032	          0.49156430	         -0.15449756	          1.51474810	          0.45307103	         -0.41155726	          1.72673118	          0.46388957	         -0.25740722	          1.47821689	          0.45423871	         -0.30620110	          1.77894771	          0.08294644	         -0.16426186	          1.41645014	          0.06988663	         -0.34360245	          1.80169559	          0.09927189	         -0.22900444	          1.43601465	          0.08847378	         -0.28202450	          1.48185301	          1.42002833	         -0.29622379	          1.60167801	          1.33153594	         -0.24504900	          1.60893238	          1.33268523	         -0.34961852	          1.58906937	          1.34182072	         -0.29554474	          1.65419126	          1.17061126	         -0.30457011	          1.74427271	          0.59853262	         -0.08203606	          1.66079736	          0.51670021	         -0.35194132	          1.72934031	          0.66002315	         -0.15082099	          1.60610020	          0.57973278	         -0.40281549	          1.76301110	          0.57864094	         -0.16863945	          1.56898570	          0.50039220	         -0.39599866	          1.77227378	          0.22132690	         -0.08078939	          1.47382653	          0.18765880	         -0.44135725	          1.77005363	          0.18361673	         -0.15304628	          1.44496322	          0.16468301	         -0.36998728	          1.91268981	          0.06279570	         -0.18455504	          1.55052519	          0.03949418	         -0.32310820	
          0.81666648	          1.65433621	          0.94716990	         -0.31188700	         -2.87176037	          2.34251642	          1.26472676	         28.54616928	         -6.36648083	          6.88603354	        -16.46172905	         -6.26426840	          0.00000000	          0.00000000	         -4.86292458	          7.39203262	          9.93843269	         -3.38166738	         10.90761280	          0.00000000	          0.00000000	        -11.58635902	         -0.37890014	         -4.71852303	          0.00000000	          0.00000000	          0.00000000	          2.18156189	          0.00000000	         -0.18877267	         15.83672909	        644.99771852	         19.15963077	          1.53475903	          0.00000000	         -0.32877405	          0.00000000	          0.00000000	          0.00000000	          0.00000000	         -1.29157397	          0.00000000	          1.56892610	          0.88558728	         -0.30805659	          1.56452656	          0.86133707	         -0.23949641	          1.56289530	          0.86813033	         -0.38976341	          1.74548388	          0.48450285	         -0.21199214	          1.50825405	          0.45889977	         -0.35429966	          1.80792844	          0.08449014	         -0.20163824	          1.43052113	          0.07169601	         -0.30726087	          1.65433621	          0.94716990	         -0.31188700	          1.65563059	          0.94177979	         -0.19265927	          1.65304184	          0.95255995	         -0.43111470	          1.46929145	          0.99358070	         -0.26923767	          1.47373915	          0.99784493	         -0.35427713	          1.74963903	          0.49073276	         -0.15397340	          1.51657081	          0.45284274	         -0.41137981	          1.72834647	          0.46272123	         -0.25674820	          1.48097563	          0.45292524	         -0.30668610	          1.79235303	          0.08301158	         -0.16482492	          1.41639590	          0.07011969	         -0.34357879	          1.81477356	          0.09974469	         -0.22981542	          1.43612468	          0.08885357	         -0.28202841	          1.48567855	          1.41951859	         -0.29607207	          1.60574913	          1.33076525	         -0.24464045	          1.61286390	          1.33274233	         -0.34995031	          1.59291375	          1.34137368	         -0.29541296	          1.65845644	          1.17039931	         -0.30585673	          1.74671674	          0.59773338	         -0.08176637	          1.66300213	          0.51605767	         -0.35207874	          1.73158276	          0.65920329	         -0.15073243	          1.60836399	          0.57939422	         -0.40276754	          1.76511836	          0.57763761	         -0.16845669	          1.57156003	          0.49977818	         -0.39626136	          1.78273344	          0.22108218	         -0.08107112	          1.47424269	          0.18783928	         -0.44138488	          1.78134966	          0.18382466	         -0.15344593	          1.44575584	          0.16476221	         -0.36974940	          1.92669511	          0.06382017	         -0.18616562	          1.55039096	          0.03944356	         -0.32322812	
          0.82499981	          1.65805197	          0.94661117	         -0.31180456	         -2.93190384	          2.33532333	          1.33025801	         28.46424484	         -6.45070839	          6.67852926	        -14.91742706	         -7.53344870	          0.00000000	          0.00000000	         -5.02129555	          7.40190649	          9.87774467	         -3.48578954	         11.08852386	          0.00000000	          0.00000000	        -11.44892788	         -0.08323399	         -5.05654383	          0.00000000	          0.00000000	          0.00000000	          2.17987988	          0.00000000	         -0.18876530	         17.91454678	        643.01395302	         19.72747229	          1.53569861	          0.00000000	         -0.32902951	          0.00000000	          0.00000000	          0.00000000	          0.00000000	         -1.29138965	          0.00000000	          1.57247114	          0.88487732	         -0.30778617	          1.56823862	          0.86085594	         -0.23932669	          1.56644320	          0.86767685	         -0.38959056	          1.74826908	          0.48365605	         -0.21148689	          1.51031017	          0.45866516	         -0.35404435	          1.82049525	          0.08519225	         -0.20235582	          1.43052912	          0.07181979	         -0.30726770	          1.65805197	          0.94661117	         -0.31180456	          1.65947664	          0.94119805	         -0.19255377	          1.65662718	          0.95202434	         -0.43105534	          1.47314656	          0.99314851	         -0.26880181	          1.47748590	          0.99749696	         -0.35387561	          1.75228167	          0.48985425	         -0.15345474	          1.51847053	          0.45258281	         -0.41114438	          1.72954142	          0.46155140	         -0.25611284	          1.48290372	          0.45301217	         -0.30708897	          1.80521762	          0.08326899	         -0.16543840	          1.41634107	          0.07035677	         -0.34356585	          1.82674634	          0.10035279	         -0.23081252	          1.43582237	          0.08906081	         -0.28194052	          1.48923838	          1.41910160	         -0.29583731	          1.60920823	          1.33018434	         -0.24454598	          1.61695814	          1.33257103	         -0.34997219	          1.59680176	          1.34091675	         -0.29524860	          1.66240788	          1.17009401	         -0.30614159	          1.74922991	          0.59689826	         -0.08157004	          1.66530573	          0.51539093	         -0.35219225	          1.73341680	          0.65842414	         -0.15051696	          1.61079884	          0.57918268	         -0.40319604	          1.76698840	          0.57651854	         -0.16838686	          1.57362461	          0.49937209	         -0.39661929	          1.79282069	          0.22097678	         -0.08136982	          1.47471440	          0.18799107	         -0.44137865	          1.79242754	          0.18355487	         -0.15430520	          1.44610953	          0.16474026	         -0.36947611	          1.94015646	          0.06473513	         -0.18780151	          1.55020845	          0.03933861	         -0.32331011	
          0.83333313	          1.66184247	          0.94605398	         -0.31168270	         -2.97411919	          2.32323265	          1.39528418	         28.33641434	         -6.52438307	          6.52611828	        -13.39512062	         -8.87681866	          0.00000000	          0.00000000	         -5.19930029	          7.40784788	          9.81105042	         -3.59991813	         11.25944901	          0.00000000	          0.00000000	        -11.36283302	         -0.51553136	         -5.19653845	          0.00000000	          0.00000000	          0.00000000	          2.17777185	          0.00000000	         -0.18876938	         19.89876140	        640.48899593	         20.34036948	          1.53669678	          0.00000000	         -0.32922195	          0.00000000	          0.00000000	          0.00000000	          0.00000000	         -1.27715039	          0.00000000	          1.57643318	          0.88450372	         -0.30741853	          1.57205331	          0.86035436	         -0.23910917	          1.57008982	          0.86718994	         -0.38937029	          1.75094450	          0.48277116	         -0.21098787	          1.51245534	          0.45841381	         -0.35372978	          1.83253872	          0.08604439	         -0.20312203	          1.43055558	          0.07192814	         -0.30728009	          1.66184247	          0.94605398	         -0.31168270	          1.66340113	          0.94062763	         -0.19239807	          1.66028380	          0.95148039	         -0.43096736	          1.47703660	          0.99267304	         -0.26831540	          1.48125815	          0.99709755	         -0.35346442	          1.75487554	          0.48895615	         -0.15294872	          1.52045166	          0.45230612	         -0.41085032	          1.73056412	          0.46145174	         -0.25648311	          1.48215342	          0.45498389	         -0.30825773	          1.81757045	          0.08369987	         -0.16610242	          1.41631126	          0.07058624	         -0.34356087	          1.83855152	          0.10112887	         -0.23164664	          1.43566930	          0.08903452	         -0.28176153	          1.49294269	          1.41853213	         -0.29509601	          1.61313844	          1.33028734	         -0.24490014	          1.62075078	          1.33184183	         -0.34924081	          1.60070372	          1.34043086	         -0.29502368	          1.66652381	          1.16979527	         -0.30471137	          1.75182927	          0.59604824	         -0.08143930	          1.66770339	          0.51468563	         -0.35226509	          1.73602009	          0.65769953	         -0.15007849	          1.61350334	          0.57870668	         -0.40332940	          1.76896620	          0.57597065	         -0.16839978	          1.57414079	          0.49936193	         -0.39726114	          1.80253398	          0.22100821	         -0.08169135	          1.47523284	          0.18809068	         -0.44132704	          1.80284297	          0.18367337	         -0.15514511	          1.44623029	          0.16476236	         -0.36927548	          1.95305943	          0.06554545	         -0.18941928	          1.55000591	          0.03919137	         -0.32335985	
